<svg version="1.1" id="Layer_1" xmlns="http://www.w3.org/2000/svg" xmlns:xlink="http://www.w3.org/1999/xlink" x="0px" y="0px"
	 width="100%" viewBox="0 0 579 488" enable-background="new 0 0 579 488" xml:space="preserve">
<path fill="#000000" opacity="1.000000" stroke="none" 
	d="
M347.000000,489.000000 
	C231.360291,489.000000 116.220596,489.000000 1.040445,489.000000 
	C1.040445,326.398376 1.040445,163.796768 1.040445,1.097573 
	C193.889725,1.097573 386.779510,1.097573 579.834656,1.097573 
	C579.834656,163.666534 579.834656,326.333252 579.834656,489.000000 
	C502.463379,489.000000 424.981689,489.000000 347.000000,489.000000 
M328.008057,20.340609 
	C327.704834,19.882614 327.401611,19.424620 327.000916,18.040428 
	C327.000916,12.841900 327.000916,7.643372 327.000916,1.785070 
	C318.226135,10.493811 309.811005,18.006184 297.538208,19.035595 
	C283.864349,20.182531 277.293518,27.068975 276.013275,41.808392 
	C276.063477,43.207359 276.113708,44.606331 275.812897,46.698776 
	C268.359344,46.477749 260.825989,46.634911 254.575699,51.218597 
	C248.119781,55.953094 242.603851,66.678596 248.727966,74.736786 
	C247.495987,75.173882 246.238800,75.476158 245.116257,76.044441 
	C241.368347,77.941772 237.668671,79.934387 233.323746,82.144691 
	C231.843613,83.414223 230.363480,84.683754 228.241776,86.215538 
	C223.940216,91.895065 219.046402,97.231003 215.498016,103.347481 
	C211.691818,109.908356 212.012802,117.531830 212.230225,124.684914 
	C209.491241,121.742775 206.189987,119.146027 204.127533,115.788338 
	C199.487671,108.234589 195.675446,100.175461 191.111374,92.571106 
	C188.052277,87.474266 185.228668,81.447693 180.626068,78.234207 
	C171.778244,72.056763 162.142380,75.758781 153.582230,80.118202 
	C143.264786,85.372559 134.718643,92.813957 128.883759,103.203049 
	C122.849327,113.947411 115.938171,124.205513 110.052734,135.025650 
	C104.545753,145.150024 98.702896,154.599319 87.321861,159.051529 
	C85.435989,159.789261 83.592415,160.825073 81.986488,162.058105 
	C70.410736,170.946106 58.982830,180.028229 47.345173,188.833542 
	C37.907448,195.974335 31.126192,205.321686 25.034801,215.190323 
	C18.505747,225.768021 19.480680,237.701172 20.404058,249.310257 
	C20.750998,253.672134 23.445436,257.847290 25.139296,262.452057 
	C25.139296,262.452057 25.247684,262.789246 25.022894,263.460297 
	C25.674742,264.317810 26.326590,265.175354 27.056005,266.792725 
	C30.416365,273.193970 33.776726,279.595184 36.840607,286.624664 
	C31.599291,292.053833 28.308336,298.248993 28.779900,306.785980 
	C28.186085,309.917938 27.282999,313.027679 27.055689,316.186005 
	C26.336403,326.179993 30.399521,335.170898 34.228153,343.910126 
	C36.646034,349.429138 41.297657,353.969543 44.217915,359.009003 
	C37.476566,361.757721 35.352345,367.368744 34.248123,374.356964 
	C30.507929,380.463287 30.666540,387.651642 32.580376,393.524231 
	C36.602795,405.867035 42.596912,417.562378 51.739326,427.167023 
	C55.248539,430.853638 59.421886,433.905334 62.959816,437.567841 
	C74.724869,449.747192 88.264854,459.112030 104.545586,464.130859 
	C113.612907,466.926025 122.719948,469.644989 131.928864,471.911713 
	C139.438782,473.760193 147.335342,474.206970 154.693481,476.468964 
	C171.822021,481.734650 189.528397,481.766296 207.066238,482.776245 
	C217.026276,483.349823 227.113754,481.163147 237.148376,481.112244 
	C253.572128,481.028870 269.998932,481.709412 286.425598,482.001740 
	C305.830566,482.347076 325.236145,482.778473 344.642761,482.863678 
	C354.733307,482.908020 364.844879,482.559937 374.913788,481.890381 
	C385.015076,481.218597 395.092987,480.075531 405.148651,478.868469 
	C417.436462,477.393433 429.653748,474.711060 441.967804,474.223145 
	C459.536194,473.527069 475.026031,466.815979 490.412994,459.696136 
	C500.319885,455.112030 509.831177,449.574615 519.178711,443.902405 
	C534.190430,434.793152 545.471558,423.221069 544.107910,403.676331 
	C543.683838,397.598969 541.676758,392.774048 537.006836,388.088684 
	C537.587891,382.818054 535.751892,378.443573 531.647522,375.240234 
	C528.653015,372.903107 525.301392,371.023438 522.046265,368.331390 
	C522.062988,367.924347 522.079651,367.517334 522.722107,366.818085 
	C539.557190,354.900787 544.513550,337.364746 545.884399,317.225494 
	C544.913696,313.215118 544.757324,308.737183 542.785034,305.301819 
	C539.679932,299.893188 536.248962,294.172180 529.229309,292.254395 
	C534.414673,280.209473 543.997314,269.898041 544.386169,255.994766 
	C544.628662,247.322983 544.795959,238.431091 543.187073,229.982651 
	C541.325256,220.205673 533.836487,214.148376 524.992676,209.187958 
	C518.971008,200.518250 514.109924,191.343323 515.079346,180.388580 
	C515.575989,174.776489 516.769714,169.171997 518.197144,163.707428 
	C521.295593,151.845703 523.342834,139.853104 521.800293,127.643471 
	C521.278625,123.514702 519.555298,118.935585 516.911438,115.802589 
	C511.421631,109.297234 504.182556,107.535645 495.352905,108.768425 
	C482.430511,110.572624 469.823730,112.995438 457.256348,117.837189 
	C451.243591,113.451492 445.645874,108.277641 439.130341,104.846748 
	C426.197601,98.036697 412.864227,91.950035 399.494385,86.019875 
	C389.644409,81.650955 379.445251,78.869400 369.006622,84.138939 
	C372.272705,74.977539 371.368774,70.346436 364.550629,66.313728 
	C360.699524,64.035927 356.207916,62.840912 351.276093,61.010750 
	C349.535187,60.304634 347.794250,59.598522 346.265533,58.224155 
	C355.363190,54.170929 357.358673,44.946526 349.794006,38.607033 
	C345.662323,35.144497 340.053467,33.444614 334.881653,30.357929 
	C333.937073,29.533892 332.992462,28.709854 331.783783,27.239662 
	C330.565369,25.142529 329.346954,23.045395 328.008057,20.340609 
z"/>
<path fill="#DB8961" opacity="1.000000" stroke="none" 
	d="
M457.826599,118.194153 
	C469.823730,112.995438 482.430511,110.572624 495.352905,108.768425 
	C504.182556,107.535645 511.421631,109.297234 516.911438,115.802589 
	C519.555298,118.935585 521.278625,123.514702 521.800293,127.643471 
	C523.342834,139.853104 521.295593,151.845703 518.197144,163.707428 
	C516.769714,169.171997 515.575989,174.776489 515.079346,180.388580 
	C514.109924,191.343323 518.971008,200.518250 524.812256,209.806412 
	C520.481995,209.616257 516.354675,208.266434 512.178589,208.093765 
	C495.088348,207.387085 480.763855,214.093155 468.823547,225.852783 
	C464.022400,230.581329 460.260529,236.352722 455.900452,241.544342 
	C449.208221,249.512894 439.536621,252.050232 430.226715,254.890717 
	C414.747803,259.613464 398.683594,260.417206 382.623596,261.031464 
	C377.500946,261.227417 372.376465,261.622650 367.278534,262.167419 
	C356.115265,263.360352 344.998566,265.190033 333.808472,265.887665 
	C312.679840,267.204865 293.916931,273.131134 279.542053,289.806458 
	C273.474335,296.845215 268.394836,303.884399 269.591797,313.853394 
	C259.713226,313.977661 250.282242,314.213287 240.856750,314.074799 
	C224.395767,313.832855 207.936890,313.407593 191.479904,312.957947 
	C186.182388,312.813171 180.870178,312.565643 175.604782,311.995117 
	C151.120880,309.342255 127.215347,303.878326 103.576057,297.081818 
	C84.341759,291.551727 65.313553,285.666931 49.634228,272.396149 
	C40.063313,264.295410 30.708090,256.052704 26.691154,243.520035 
	C26.195562,241.973816 25.125128,240.611847 24.321079,239.164490 
	C23.858799,239.307220 23.396521,239.449951 22.934242,239.592682 
	C22.934242,241.686508 22.742229,243.801605 22.971542,245.869995 
	C23.572813,251.293396 24.357847,256.696442 25.069653,262.107574 
	C23.445436,257.847290 20.750998,253.672134 20.404058,249.310257 
	C19.480680,237.701172 18.505747,225.768021 25.034801,215.190323 
	C31.126192,205.321686 37.907448,195.974335 47.345173,188.833542 
	C58.982830,180.028229 70.410736,170.946106 81.986488,162.058105 
	C83.592415,160.825073 85.435989,159.789261 87.321861,159.051529 
	C98.702896,154.599319 104.545753,145.150024 110.052734,135.025650 
	C115.938171,124.205513 122.849327,113.947411 128.883759,103.203049 
	C134.718643,92.813957 143.264786,85.372559 153.582230,80.118202 
	C162.142380,75.758781 171.778244,72.056763 180.626068,78.234207 
	C185.228668,81.447693 188.052277,87.474266 191.111374,92.571106 
	C195.675446,100.175461 199.487671,108.234589 204.127533,115.788338 
	C206.189987,119.146027 209.491241,121.742775 212.677307,125.132355 
	C215.726501,127.773186 218.328598,129.966583 221.083710,132.428375 
	C222.129044,133.172546 223.021378,133.648315 224.145142,134.377991 
	C233.580734,139.022934 242.487396,144.239822 253.295929,145.210510 
	C259.048737,146.317902 264.523346,147.164246 270.382721,148.161041 
	C278.042755,148.720627 285.313629,149.274567 292.594604,149.494247 
	C298.710571,149.678802 304.838257,149.473969 311.134705,149.722260 
	C313.891327,156.911255 318.982666,161.489670 325.209717,165.038452 
	C345.725555,176.730362 367.823761,184.618515 390.185699,191.784851 
	C402.875580,195.851593 413.339752,191.314667 422.166962,182.069702 
	C425.612396,178.461227 428.853943,174.649445 432.415680,171.162476 
	C439.312927,164.409988 446.438965,157.891312 453.342743,151.145294 
	C459.500336,145.128418 462.718567,137.668915 461.846222,129.102493 
	C461.466003,125.368660 459.223389,121.824471 457.826599,118.194153 
M184.564056,204.659912 
	C185.930527,200.056107 186.250412,195.608337 183.018387,191.510010 
	C176.511673,183.259277 164.943909,181.463699 156.311661,187.425842 
	C148.702774,192.681183 147.781937,202.340683 154.270752,208.835052 
	C163.183716,217.755661 176.946640,216.128967 184.564056,204.659912 
M255.958206,242.598785 
	C262.919861,247.374191 270.630432,249.826538 279.015869,248.774109 
	C281.427368,248.471436 283.577576,246.086563 285.847565,244.656372 
	C284.126160,243.052734 282.630981,241.005356 280.615814,239.977814 
	C278.819489,239.061874 276.456024,239.131378 274.329041,239.012024 
	C263.637787,238.412064 257.980377,233.611740 255.996033,223.153397 
	C255.438583,220.215378 254.022522,219.525024 251.437912,220.798904 
	C250.542297,221.240326 249.501068,221.509232 248.767883,222.138397 
	C240.462021,229.265930 230.653229,231.186630 220.024185,231.201050 
	C216.913696,231.205276 213.805984,233.235809 210.024734,234.575836 
	C213.262314,239.315262 216.587769,240.945587 220.856033,241.022049 
	C230.451401,241.193954 239.635025,239.444778 247.943085,235.199661 
	C250.585846,237.695648 252.969284,239.946701 255.958206,242.598785 
M351.019623,218.964355 
	C353.992737,230.114029 370.130768,231.487335 377.324646,226.069611 
	C382.787048,221.955887 384.471710,215.298706 381.462036,210.207275 
	C378.042236,204.422104 368.653564,201.188141 361.497711,203.330521 
	C353.856934,205.618073 350.960358,209.694275 351.019623,218.964355 
z"/>
<path fill="#DB8A61" opacity="1.000000" stroke="none" 
	d="
M34.910484,374.022705 
	C35.352345,367.368744 37.476566,361.757721 44.961319,359.007324 
	C55.023617,362.816803 64.223892,366.957092 73.687187,370.367584 
	C90.993675,376.604675 108.262421,382.927765 126.505760,386.241791 
	C138.558289,388.431244 150.289444,392.434601 162.359100,394.474182 
	C180.321732,397.509613 198.417709,399.878937 216.529861,401.867584 
	C231.028870,403.459564 245.670837,403.722015 260.187561,405.186859 
	C280.671417,407.253845 300.968048,404.981323 321.296967,403.341980 
	C331.038483,402.556396 340.708435,400.851379 350.452942,400.141510 
	C364.518707,399.116943 378.623718,398.635040 392.708893,397.864990 
	C393.838409,397.803223 394.943939,397.303558 396.331970,397.301636 
	C397.559265,402.321106 396.671844,406.522766 394.238373,410.830078 
	C390.272369,417.850006 385.970947,425.023438 387.083069,433.607635 
	C387.650238,437.985535 389.051178,442.255402 389.662231,446.672302 
	C385.118195,446.527161 380.982422,446.019043 376.857178,446.093689 
	C367.225189,446.268005 357.597748,446.708466 347.969452,447.067963 
	C341.499512,447.309509 335.033478,447.741028 328.561920,447.839355 
	C298.512604,448.295715 268.458862,449.115417 238.413055,448.904114 
	C219.184860,448.768860 199.906998,447.702667 180.763306,445.879028 
	C162.973953,444.184387 145.148590,441.815308 127.668526,438.165405 
	C99.281403,432.238007 73.175362,420.722504 51.768497,400.619720 
	C44.071629,393.391693 35.326447,386.163025 34.910484,374.022705 
z"/>
<path fill="#FFD3A5" opacity="1.000000" stroke="none" 
	d="
M34.579304,374.189819 
	C35.326447,386.163025 44.071629,393.391693 51.768497,400.619720 
	C73.175362,420.722504 99.281403,432.238007 127.668526,438.165405 
	C145.148590,441.815308 162.973953,444.184387 180.763306,445.879028 
	C199.906998,447.702667 219.184860,448.768860 238.413055,448.904114 
	C268.458862,449.115417 298.512604,448.295715 328.561920,447.839355 
	C335.033478,447.741028 341.499512,447.309509 347.969452,447.067963 
	C357.597748,446.708466 367.225189,446.268005 376.857178,446.093689 
	C380.982422,446.019043 385.118195,446.527161 389.973297,446.841888 
	C398.146942,455.767517 408.776520,457.011902 419.173431,459.147217 
	C428.270782,461.015656 434.967041,457.634064 440.692322,451.057037 
	C442.755341,448.687073 444.921326,446.406677 447.481232,444.085754 
	C449.744934,444.011993 451.641632,444.241333 453.379303,443.817963 
	C476.832153,438.103851 499.883514,431.252747 518.822144,415.356384 
	C527.196594,408.327087 535.123962,400.601868 537.060730,388.945679 
	C541.676758,392.774048 543.683838,397.598969 544.107910,403.676331 
	C545.471558,423.221069 534.190430,434.793152 519.178711,443.902405 
	C509.831177,449.574615 500.319885,455.112030 490.412994,459.696136 
	C475.026031,466.815979 459.536194,473.527069 441.967804,474.223145 
	C429.653748,474.711060 417.436462,477.393433 405.148651,478.868469 
	C395.092987,480.075531 385.015076,481.218597 374.913788,481.890381 
	C364.844879,482.559937 354.733307,482.908020 344.642761,482.863678 
	C325.236145,482.778473 305.830566,482.347076 286.425598,482.001740 
	C269.998932,481.709412 253.572128,481.028870 237.148376,481.112244 
	C227.113754,481.163147 217.026276,483.349823 207.066238,482.776245 
	C189.528397,481.766296 171.822021,481.734650 154.693481,476.468964 
	C147.335342,474.206970 139.438782,473.760193 131.928864,471.911713 
	C122.719948,469.644989 113.612907,466.926025 104.545586,464.130859 
	C88.264854,459.112030 74.724869,449.747192 62.959816,437.567841 
	C59.421886,433.905334 55.248539,430.853638 51.739326,427.167023 
	C42.596912,417.562378 36.602795,405.867035 32.580376,393.524231 
	C30.666540,387.651642 30.507929,380.463287 34.579304,374.189819 
z"/>
<path fill="#C67B59" opacity="1.000000" stroke="none" 
	d="
M447.040314,444.085419 
	C444.921326,446.406677 442.755341,448.687073 440.692322,451.057037 
	C434.967041,457.634064 428.270782,461.015656 419.173431,459.147217 
	C408.776520,457.011902 398.146942,455.767517 390.386353,446.743713 
	C389.051178,442.255402 387.650238,437.985535 387.083069,433.607635 
	C385.970947,425.023438 390.272369,417.850006 394.238373,410.830078 
	C396.671844,406.522766 397.559265,402.321106 396.319336,396.879852 
	C395.288849,390.902954 394.867096,385.568970 393.703156,380.402130 
	C392.572540,375.383118 393.082916,369.565308 387.975159,365.706787 
	C382.851990,357.897614 366.407867,352.530518 356.110352,354.385406 
	C344.112823,356.546539 332.070984,358.971466 319.947357,359.795319 
	C304.300385,360.858612 288.919708,358.803802 275.174072,349.661926 
	C271.346497,343.140778 267.839752,335.904053 272.885681,329.952515 
	C278.016083,323.901337 275.830078,320.474945 271.809448,316.166351 
	C271.141144,315.450165 270.627136,314.589996 270.041840,313.796326 
	C268.394836,303.884399 273.474335,296.845215 279.542053,289.806458 
	C293.916931,273.131134 312.679840,267.204865 333.808472,265.887665 
	C344.998566,265.190033 356.115265,263.360352 367.278534,262.167419 
	C372.376465,261.622650 377.500946,261.227417 382.623596,261.031464 
	C398.683594,260.417206 414.747803,259.613464 430.226715,254.890717 
	C439.536621,252.050232 449.208221,249.512894 455.900452,241.544342 
	C460.260529,236.352722 464.022400,230.581329 468.823547,225.852783 
	C480.763855,214.093155 495.088348,207.387085 512.178589,208.093765 
	C516.354675,208.266434 520.481995,209.616257 524.846191,210.162415 
	C533.836487,214.148376 541.325256,220.205673 543.187073,229.982651 
	C544.795959,238.431091 544.628662,247.322983 544.386169,255.994766 
	C543.997314,269.898041 534.414673,280.209473 528.856079,292.753174 
	C525.063538,299.069977 520.932617,304.603577 518.456421,310.798584 
	C516.570923,315.515686 516.204834,321.074951 516.227234,326.254944 
	C516.250427,331.634888 517.553528,337.009338 518.256836,342.751953 
	C518.908020,347.152649 519.628540,351.182770 520.282227,355.223724 
	C520.922363,359.180206 521.494446,363.147644 522.096375,367.110291 
	C522.079651,367.517334 522.062988,367.924347 521.771118,368.863525 
	C521.004700,370.609222 520.365601,371.785309 520.046936,373.042603 
	C518.301270,379.929352 516.948547,386.933716 514.844055,393.706055 
	C513.045593,399.493469 510.065430,405.171906 503.858948,407.037445 
	C493.549713,410.136200 481.023743,407.455444 474.735229,397.514282 
	C473.148499,395.005920 471.562073,392.497406 470.023010,389.523102 
	C470.064850,382.658783 470.176270,376.257263 470.010681,369.862915 
	C469.906342,365.832916 469.387390,361.813629 469.034058,357.440063 
	C467.727264,352.772827 464.714569,350.302277 460.333435,350.509125 
	C454.746399,350.772827 450.881104,354.698120 449.944153,360.458374 
	C450.116547,371.475891 450.374573,382.088593 450.648956,392.700897 
	C450.652039,392.820160 450.868713,392.933960 450.990356,393.497009 
	C451.012390,395.602203 450.907135,397.272614 451.066193,398.917450 
	C452.546844,414.228638 453.733887,429.505371 447.040314,444.085419 
M506.148132,353.137726 
	C505.761017,350.430023 505.373901,347.722351 504.993439,344.146851 
	C504.532776,339.540314 504.225983,334.911987 503.577972,330.331940 
	C502.395020,321.971191 502.262207,313.675415 506.084442,305.947906 
	C511.975098,294.038452 517.818176,282.074615 524.427368,270.562103 
	C528.890076,262.788574 531.363037,254.860855 530.977661,245.124619 
	C530.664612,243.000534 530.285400,240.883789 530.049500,238.751175 
	C528.764648,227.135406 518.364014,219.403000 507.028046,221.114502 
	C489.919159,223.697617 477.692017,233.088043 468.155884,247.061905 
	C465.339630,251.188751 461.501617,255.100937 457.261383,257.680756 
	C445.675049,264.730011 432.829071,268.990326 419.446198,270.871643 
	C407.666504,272.527588 395.713196,272.909668 383.860474,274.093781 
	C365.269348,275.951050 346.711945,278.151794 328.114655,279.940582 
	C311.744843,281.515137 297.713715,287.063141 287.508453,300.804169 
	C281.872925,308.392273 281.560883,309.032776 289.076447,315.757294 
	C293.718872,322.819550 293.377686,327.134033 287.730225,332.781189 
	C282.743958,337.767181 282.852203,340.404785 289.627838,342.587158 
	C296.790741,344.894318 304.509460,346.912903 311.916168,346.695801 
	C323.590393,346.353546 335.213531,344.088440 346.845551,342.541443 
	C357.705414,341.097107 368.447266,339.385559 379.126648,344.081573 
	C392.003021,349.743591 402.807861,357.092499 405.523499,372.130219 
	C407.110229,380.916870 408.733368,389.708252 409.898804,398.555664 
	C410.690155,404.563263 409.818237,410.398071 406.595520,415.866180 
	C404.255859,419.835968 402.341339,424.131866 400.807098,428.483276 
	C398.421265,435.249939 401.611359,441.122711 408.446655,443.233521 
	C411.135742,444.063934 413.893463,444.677460 416.630676,445.345825 
	C426.483368,447.751678 437.071503,441.451904 437.708252,431.382843 
	C438.557709,417.949493 438.054871,404.412354 437.732574,390.929382 
	C437.507172,381.501801 436.105225,372.086243 436.179626,362.672852 
	C436.236389,355.491882 438.461182,348.945709 444.536865,343.773987 
	C461.349548,329.462708 480.753662,341.044525 482.126373,355.260284 
	C482.969910,363.996368 482.287933,372.884521 483.221008,381.604889 
	C483.625000,385.380737 485.609711,389.630920 488.224335,392.386841 
	C493.015564,397.437012 500.175842,395.695129 502.298309,389.187622 
	C503.862610,384.391479 503.302063,378.752716 505.426971,374.323547 
	C508.759644,367.376984 508.250153,360.852966 506.148132,353.137726 
z"/>
<path fill="#FFD3A5" opacity="1.000000" stroke="none" 
	d="
M388.011932,366.061584 
	C393.082916,369.565308 392.572540,375.383118 393.703156,380.402130 
	C394.867096,385.568970 395.288849,390.902954 396.047974,396.585602 
	C394.943939,397.303558 393.838409,397.803223 392.708893,397.864990 
	C378.623718,398.635040 364.518707,399.116943 350.452942,400.141510 
	C340.708435,400.851379 331.038483,402.556396 321.296967,403.341980 
	C300.968048,404.981323 280.671417,407.253845 260.187561,405.186859 
	C245.670837,403.722015 231.028870,403.459564 216.529861,401.867584 
	C198.417709,399.878937 180.321732,397.509613 162.359100,394.474182 
	C150.289444,392.434601 138.558289,388.431244 126.505760,386.241791 
	C108.262421,382.927765 90.993675,376.604675 73.687187,370.367584 
	C64.223892,366.957092 55.023617,362.816803 45.326035,358.977295 
	C41.297657,353.969543 36.646034,349.429138 34.228153,343.910126 
	C30.399521,335.170898 26.336403,326.179993 27.055689,316.186005 
	C27.282999,313.027679 28.186085,309.917938 29.229454,306.646149 
	C34.691860,314.961914 42.906982,319.823364 51.322289,323.502289 
	C68.939720,331.204102 86.776405,338.584869 104.998978,344.672943 
	C124.502037,351.188751 144.435028,356.536285 164.397873,361.523071 
	C183.371567,366.262726 202.410248,371.269287 222.127075,371.857697 
	C243.705338,372.501678 265.295410,372.820190 286.882782,373.068909 
	C311.999390,373.358276 337.118225,373.314728 362.084564,369.957550 
	C370.745056,368.792969 379.370483,367.367767 388.011932,366.061584 
z"/>
<path fill="#FFEAA6" opacity="1.000000" stroke="none" 
	d="
M457.541443,118.015671 
	C459.223389,121.824471 461.466003,125.368660 461.846222,129.102493 
	C462.718567,137.668915 459.500336,145.128418 453.342743,151.145294 
	C446.438965,157.891312 439.312927,164.409988 432.415680,171.162476 
	C428.853943,174.649445 425.612396,178.461227 422.166962,182.069702 
	C413.339752,191.314667 402.875580,195.851593 390.185699,191.784851 
	C367.823761,184.618515 345.725555,176.730362 325.209717,165.038452 
	C318.982666,161.489670 313.891327,156.911255 311.149353,149.228027 
	C311.690491,143.305161 312.390991,138.157242 313.383820,132.856720 
	C315.128082,130.473358 316.579987,128.242584 318.320679,125.844849 
	C328.010315,113.555626 339.021942,103.294296 352.439819,95.649353 
	C358.164429,92.387711 363.548706,88.528725 369.087616,84.941170 
	C379.445251,78.869400 389.644409,81.650955 399.494385,86.019875 
	C412.864227,91.950035 426.197601,98.036697 439.130341,104.846748 
	C445.645874,108.277641 451.243591,113.451492 457.541443,118.015671 
M341.623688,142.838516 
	C334.359070,140.655930 327.785736,135.148041 319.207855,138.422043 
	C322.670166,141.046921 326.261047,143.405212 330.188599,144.845139 
	C351.068359,152.500092 371.999817,160.019012 393.005554,167.319824 
	C395.899323,168.325592 399.306396,167.854401 402.475830,168.066986 
	C402.707581,167.322693 402.939301,166.578400 403.171051,165.834106 
	C399.811462,164.189194 396.571808,162.209290 393.071930,160.956223 
	C376.194977,154.913910 359.247894,149.067429 341.623688,142.838516 
M420.927124,159.507263 
	C430.032623,148.761887 439.168488,138.041946 448.214783,127.246910 
	C449.783173,125.375351 450.972351,123.186035 452.336670,121.143478 
	C451.808472,120.550735 451.280243,119.958000 450.752014,119.365265 
	C448.698669,120.532486 446.169128,121.270966 444.669342,122.936615 
	C435.019989,133.653214 425.507904,144.498077 416.187469,155.501389 
	C414.687897,157.271744 414.373108,160.045700 413.510651,162.355728 
	C415.814026,161.582504 418.117371,160.809280 420.927124,159.507263 
M408.394470,168.318085 
	C407.618744,168.442596 406.218719,168.432922 406.158905,168.711288 
	C404.767212,175.187378 403.431366,181.680420 402.387482,188.218582 
	C402.284302,188.864853 404.460480,190.671646 405.005493,190.460480 
	C406.172272,190.008377 407.487183,188.726425 407.802551,187.535675 
	C408.510529,184.862473 408.816528,182.047119 408.971161,179.272064 
	C409.165924,175.777344 409.046509,172.265121 408.394470,168.318085 
M417.337830,134.300171 
	C418.353912,134.503448 419.977509,135.205856 420.287262,134.828796 
	C422.258972,132.429108 424.103271,129.883209 425.631317,127.182785 
	C426.174805,126.222321 425.718353,124.696060 425.718353,123.428070 
	C425.293396,123.348984 424.868408,123.269897 424.443451,123.190811 
	C422.083008,126.667297 419.722534,130.143784 417.337830,134.300171 
M409.960510,142.558151 
	C408.867310,144.375381 407.774109,146.192612 406.680908,148.009857 
	C407.298492,148.492874 407.916077,148.975906 408.533661,149.458923 
	C410.242035,147.776947 412.577881,146.375900 413.490509,144.337616 
	C414.496063,142.091690 413.397980,140.340561 409.960510,142.558151 
z"/>
<path fill="#FFD3A5" opacity="1.000000" stroke="none" 
	d="
M269.591797,313.853394 
	C270.627136,314.589996 271.141144,315.450165 271.809448,316.166351 
	C275.830078,320.474945 278.016083,323.901337 272.885681,329.952515 
	C267.839752,335.904053 271.346497,343.140778 274.715271,349.652893 
	C273.635651,350.031158 272.969055,350.038574 272.303192,350.064453 
	C254.927216,350.739502 237.556503,351.640778 220.174240,352.040985 
	C193.530197,352.654541 167.918610,345.109406 141.909378,341.040070 
	C127.157249,338.731995 112.906937,332.713531 98.680733,327.661743 
	C75.865402,319.560028 56.060768,306.779694 40.395565,288.015656 
	C39.618343,287.084656 38.237083,286.657928 37.137085,285.996429 
	C33.776726,279.595184 30.416365,273.193970 27.066380,266.070129 
	C26.467062,264.494781 25.857370,263.641998 25.247681,262.789246 
	C25.247684,262.789246 25.139296,262.452057 25.104473,262.279816 
	C24.357847,256.696442 23.572813,251.293396 22.971542,245.869995 
	C22.742229,243.801605 22.934242,241.686508 22.934242,239.592682 
	C23.396521,239.449951 23.858799,239.307220 24.321079,239.164490 
	C25.125128,240.611847 26.195562,241.973816 26.691154,243.520035 
	C30.708090,256.052704 40.063313,264.295410 49.634228,272.396149 
	C65.313553,285.666931 84.341759,291.551727 103.576057,297.081818 
	C127.215347,303.878326 151.120880,309.342255 175.604782,311.995117 
	C180.870178,312.565643 186.182388,312.813171 191.479904,312.957947 
	C207.936890,313.407593 224.395767,313.832855 240.856750,314.074799 
	C250.282242,314.213287 259.713226,313.977661 269.591797,313.853394 
z"/>
<path fill="#DC8A62" opacity="1.000000" stroke="none" 
	d="
M36.988846,286.310547 
	C38.237083,286.657928 39.618343,287.084656 40.395565,288.015656 
	C56.060768,306.779694 75.865402,319.560028 98.680733,327.661743 
	C112.906937,332.713531 127.157249,338.731995 141.909378,341.040070 
	C167.918610,345.109406 193.530197,352.654541 220.174240,352.040985 
	C237.556503,351.640778 254.927216,350.739502 272.303192,350.064453 
	C272.969055,350.038574 273.635651,350.031158 274.760681,350.024109 
	C288.919708,358.803802 304.300385,360.858612 319.947357,359.795319 
	C332.070984,358.971466 344.112823,356.546539 356.110352,354.385406 
	C366.407867,352.530518 382.851990,357.897614 387.975159,365.706787 
	C379.370483,367.367767 370.745056,368.792969 362.084564,369.957550 
	C337.118225,373.314728 311.999390,373.358276 286.882782,373.068909 
	C265.295410,372.820190 243.705338,372.501678 222.127075,371.857697 
	C202.410248,371.269287 183.371567,366.262726 164.397873,361.523071 
	C144.435028,356.536285 124.502037,351.188751 104.998978,344.672943 
	C86.776405,338.584869 68.939720,331.204102 51.322289,323.502289 
	C42.906982,319.823364 34.691860,314.961914 29.438152,306.296082 
	C28.308336,298.248993 31.599291,292.053833 36.988846,286.310547 
z"/>
<path fill="#FCFBF1" opacity="1.000000" stroke="none" 
	d="
M220.930710,132.159973 
	C218.328598,129.966583 215.726501,127.773186 212.984756,125.268448 
	C212.012802,117.531830 211.691818,109.908356 215.498016,103.347481 
	C219.046402,97.231003 223.940216,91.895065 229.038467,86.098579 
	C270.114136,88.296410 307.948639,77.233353 346.525665,63.546745 
	C345.482605,65.516403 345.301880,66.179726 344.880615,66.604553 
	C339.285278,72.247551 333.721466,77.924240 328.022522,83.461563 
	C314.434113,96.664597 298.972198,107.228477 281.747131,115.035988 
	C267.370605,121.552353 252.610931,127.042892 236.781418,129.107880 
	C231.455765,129.802597 226.211929,131.124634 220.930710,132.159973 
z"/>
<path fill="#FCFBF1" opacity="1.000000" stroke="none" 
	d="
M335.110748,30.949829 
	C340.053467,33.444614 345.662323,35.144497 349.794006,38.607033 
	C357.358673,44.946526 355.363190,54.170929 345.952454,58.850941 
	C327.005127,65.313576 308.586761,72.023514 289.665283,76.696518 
	C275.640961,80.160088 260.986084,81.177948 246.561111,82.843925 
	C242.449142,83.318832 238.158966,82.250923 233.950516,81.890488 
	C237.668671,79.934387 241.368347,77.941772 245.116257,76.044441 
	C246.238800,75.476158 247.495987,75.173882 248.727966,74.736786 
	C242.603851,66.678596 248.119781,55.953094 254.575699,51.218597 
	C260.825989,46.634911 268.359344,46.477749 276.391357,46.285591 
	C279.247070,45.582104 281.517181,45.204491 283.802917,45.017948 
	C290.535431,44.468491 297.343903,44.438377 303.994751,43.392151 
	C315.244843,41.622440 325.431793,36.836014 335.110748,30.949829 
z"/>
<path fill="#FCFBF0" opacity="1.000000" stroke="none" 
	d="
M369.047119,84.540054 
	C363.548706,88.528725 358.164429,92.387711 352.439819,95.649353 
	C339.021942,103.294296 328.010315,113.555626 317.958801,125.876236 
	C315.801331,126.755989 314.193878,127.276024 312.803345,128.143753 
	C299.074005,136.711197 284.071350,141.390549 268.042847,143.061264 
	C263.023407,143.584457 258.025482,144.314224 253.017731,144.949432 
	C242.487396,144.239822 233.580734,139.022934 224.424271,134.072678 
	C237.178818,130.759689 250.143600,128.855316 262.543091,125.089577 
	C296.868652,114.664848 324.141724,93.385574 348.036804,67.331345 
	C349.666107,65.554848 350.696106,63.228695 352.004822,61.158169 
	C356.207916,62.840912 360.699524,64.035927 364.550629,66.313728 
	C371.368774,70.346436 372.272705,74.977539 369.047119,84.540054 
z"/>
<path fill="#DB8962" opacity="1.000000" stroke="none" 
	d="
M469.975494,389.988953 
	C471.562073,392.497406 473.148499,395.005920 474.735229,397.514282 
	C481.023743,407.455444 493.549713,410.136200 503.858948,407.037445 
	C510.065430,405.171906 513.045593,399.493469 514.844055,393.706055 
	C516.948547,386.933716 518.301270,379.929352 520.046936,373.042603 
	C520.365601,371.785309 521.004700,370.609222 521.802429,369.167725 
	C525.301392,371.023438 528.653015,372.903107 531.647522,375.240234 
	C535.751892,378.443573 537.587891,382.818054 537.033813,388.517181 
	C535.123962,400.601868 527.196594,408.327087 518.822144,415.356384 
	C499.883514,431.252747 476.832153,438.103851 453.379303,443.817963 
	C451.641632,444.241333 449.744934,444.011993 447.481232,444.085754 
	C453.733887,429.505371 452.546844,414.228638 451.066193,398.917450 
	C450.907135,397.272614 451.012390,395.602203 451.415894,393.455597 
	C457.883026,391.974670 463.929260,390.981812 469.975494,389.988953 
z"/>
<path fill="#DB8961" opacity="1.000000" stroke="none" 
	d="
M518.296936,342.386169 
	C517.553528,337.009338 516.250427,331.634888 516.227234,326.254944 
	C516.204834,321.074951 516.570923,315.515686 518.456421,310.798584 
	C520.932617,304.603577 525.063538,299.069977 528.794434,293.095947 
	C536.248962,294.172180 539.679932,299.893188 542.785034,305.301819 
	C544.757324,308.737183 544.913696,313.215118 545.506104,317.710205 
	C544.112671,319.460785 543.024109,320.675110 542.094482,322.000885 
	C535.901184,330.833374 528.336426,338.050385 518.296936,342.386169 
z"/>
<path fill="#F9EDE5" opacity="1.000000" stroke="none" 
	d="
M351.640442,61.084457 
	C350.696106,63.228695 349.666107,65.554848 348.036804,67.331345 
	C324.141724,93.385574 296.868652,114.664848 262.543091,125.089577 
	C250.143600,128.855316 237.178818,130.759689 224.192841,133.818756 
	C223.021378,133.648315 222.129044,133.172546 221.083710,132.428375 
	C226.211929,131.124634 231.455765,129.802597 236.781418,129.107880 
	C252.610931,127.042892 267.370605,121.552353 281.747131,115.035988 
	C298.972198,107.228477 314.434113,96.664597 328.022522,83.461563 
	C333.721466,77.924240 339.285278,72.247551 344.880615,66.604553 
	C345.301880,66.179726 345.482605,65.516403 346.525665,63.546745 
	C307.948639,77.233353 270.114136,88.296410 229.359253,85.967453 
	C230.363480,84.683754 231.843613,83.414223 233.637131,82.017593 
	C238.158966,82.250923 242.449142,83.318832 246.561111,82.843925 
	C260.986084,81.177948 275.640961,80.160088 289.665283,76.696518 
	C308.586761,72.023514 327.005127,65.313576 345.846375,59.185066 
	C347.794250,59.598522 349.535187,60.304634 351.640442,61.084457 
z"/>
<path fill="#FCFBF1" opacity="1.000000" stroke="none" 
	d="
M276.165497,40.979820 
	C277.293518,27.068975 283.864349,20.182531 297.538208,19.035595 
	C309.811005,18.006184 318.226135,10.493811 327.000916,1.785070 
	C327.000916,7.643372 327.000916,12.841900 326.694641,18.544498 
	C325.679413,19.450954 324.915161,19.780048 324.269623,20.266630 
	C313.207764,28.604748 301.510040,35.669575 287.734894,38.591000 
	C283.882812,39.407944 280.022186,40.184654 276.165497,40.979820 
z"/>
<path fill="#FED3A5" opacity="1.000000" stroke="none" 
	d="
M518.256836,342.751953 
	C528.336426,338.050385 535.901184,330.833374 542.094482,322.000885 
	C543.024109,320.675110 544.112671,319.460785 545.451416,318.137970 
	C544.513550,337.364746 539.557190,354.900787 522.409241,366.964172 
	C521.494446,363.147644 520.922363,359.180206 520.282227,355.223724 
	C519.628540,351.182770 518.908020,347.152649 518.256836,342.751953 
z"/>
<path fill="#F9EDE5" opacity="1.000000" stroke="none" 
	d="
M276.089386,41.394104 
	C280.022186,40.184654 283.882812,39.407944 287.734894,38.591000 
	C301.510040,35.669575 313.207764,28.604748 324.269623,20.266630 
	C324.915161,19.780048 325.679413,19.450954 326.743408,19.007597 
	C327.401611,19.424620 327.704834,19.882614 327.712402,20.690475 
	C316.567108,29.177767 305.123230,36.261497 292.126709,40.659916 
	C306.775818,40.342121 320.291077,36.809547 332.047882,27.885818 
	C332.992462,28.709854 333.937073,29.533892 334.996216,30.653881 
	C325.431793,36.836014 315.244843,41.622440 303.994751,43.392151 
	C297.343903,44.438377 290.535431,44.468491 283.802917,45.017948 
	C281.517181,45.204491 279.247070,45.582104 276.566864,45.938850 
	C276.113708,44.606331 276.063477,43.207359 276.089386,41.394104 
z"/>
<path fill="#FCFAF0" opacity="1.000000" stroke="none" 
	d="
M331.915833,27.562740 
	C320.291077,36.809547 306.775818,40.342121 292.126709,40.659916 
	C305.123230,36.261497 316.567108,29.177767 327.772644,20.994301 
	C329.346954,23.045395 330.565369,25.142529 331.915833,27.562740 
z"/>
<path fill="#DB8961" opacity="1.000000" stroke="none" 
	d="
M25.135284,263.124756 
	C25.857370,263.641998 26.467062,264.494781 27.027596,265.690186 
	C26.326590,265.175354 25.674742,264.317810 25.135284,263.124756 
z"/>
<path fill="#A56958" opacity="1.000000" stroke="none" 
	d="
M184.357300,204.981659 
	C176.946640,216.128967 163.183716,217.755661 154.270752,208.835052 
	C147.781937,202.340683 148.702774,192.681183 156.311661,187.425842 
	C164.943909,181.463699 176.511673,183.259277 183.018387,191.510010 
	C186.250412,195.608337 185.930527,200.056107 184.357300,204.981659 
z"/>
<path fill="#A66A58" opacity="1.000000" stroke="none" 
	d="
M255.655457,242.398285 
	C252.969284,239.946701 250.585846,237.695648 247.943085,235.199661 
	C239.635025,239.444778 230.451401,241.193954 220.856033,241.022049 
	C216.587769,240.945587 213.262314,239.315262 210.024734,234.575836 
	C213.805984,233.235809 216.913696,231.205276 220.024185,231.201050 
	C230.653229,231.186630 240.462021,229.265930 248.767883,222.138397 
	C249.501068,221.509232 250.542297,221.240326 251.437912,220.798904 
	C254.022522,219.525024 255.438583,220.215378 255.996033,223.153397 
	C257.980377,233.611740 263.637787,238.412064 274.329041,239.012024 
	C276.456024,239.131378 278.819489,239.061874 280.615814,239.977814 
	C282.630981,241.005356 284.126160,243.052734 285.847565,244.656372 
	C283.577576,246.086563 281.427368,248.471436 279.015869,248.774109 
	C270.630432,249.826538 262.919861,247.374191 255.655457,242.398285 
z"/>
<path fill="#A56A58" opacity="1.000000" stroke="none" 
	d="
M351.000000,218.547653 
	C350.960358,209.694275 353.856934,205.618073 361.497711,203.330521 
	C368.653564,201.188141 378.042236,204.422104 381.462036,210.207275 
	C384.471710,215.298706 382.787048,221.955887 377.324646,226.069611 
	C370.130768,231.487335 353.992737,230.114029 351.000000,218.547653 
z"/>
<path fill="#FBF8ED" opacity="1.000000" stroke="none" 
	d="
M313.091492,133.009323 
	C312.390991,138.157242 311.690491,143.305161 310.975372,148.947296 
	C304.838257,149.473969 298.710571,149.678802 292.594604,149.494247 
	C285.313629,149.274567 278.042755,148.720627 270.468201,147.780029 
	C270.656830,146.864685 271.089539,146.276093 271.640808,146.127563 
	C280.321045,143.789062 289.087219,141.739761 297.682343,139.126221 
	C302.951508,137.524002 307.963806,135.076965 313.091492,133.009323 
z"/>
<path fill="#F9ECE3" opacity="1.000000" stroke="none" 
	d="
M313.383789,132.856720 
	C307.963806,135.076965 302.951508,137.524002 297.682343,139.126221 
	C289.087219,141.739761 280.321045,143.789062 271.640808,146.127563 
	C271.089539,146.276093 270.656830,146.864685 270.083435,147.629562 
	C264.523346,147.164246 259.048737,146.317902 253.295929,145.210510 
	C258.025482,144.314224 263.023407,143.584457 268.042847,143.061264 
	C284.071350,141.390549 299.074005,136.711197 312.803345,128.143753 
	C314.193878,127.276024 315.801331,126.755989 317.670044,126.043213 
	C316.579987,128.242584 315.128082,130.473358 313.383789,132.856720 
z"/>
<path fill="#DF7F4C" opacity="1.000000" stroke="none" 
	d="
M530.962280,245.977692 
	C531.363037,254.860855 528.890076,262.788574 524.427368,270.562103 
	C517.818176,282.074615 511.975098,294.038452 506.084442,305.947906 
	C502.262207,313.675415 502.395020,321.971191 503.577972,330.331940 
	C504.225983,334.911987 504.532776,339.540314 504.620911,344.671448 
	C503.547485,348.105804 502.648560,350.990082 502.268585,353.941162 
	C502.157135,354.806732 503.519257,355.862000 504.206055,356.830322 
	C504.895264,355.882263 505.584473,354.934204 506.273712,353.986176 
	C508.250153,360.852966 508.759644,367.376984 505.426971,374.323547 
	C503.302063,378.752716 503.862610,384.391479 502.298309,389.187622 
	C500.175842,395.695129 493.015564,397.437012 488.224335,392.386841 
	C485.609711,389.630920 483.625000,385.380737 483.221008,381.604889 
	C482.287933,372.884521 482.969910,363.996368 482.126373,355.260284 
	C480.753662,341.044525 461.349548,329.462708 444.536865,343.773987 
	C438.461182,348.945709 436.236389,355.491882 436.179626,362.672852 
	C436.105225,372.086243 437.507172,381.501801 437.732574,390.929382 
	C438.054871,404.412354 438.557709,417.949493 437.708252,431.382843 
	C437.071503,441.451904 426.483368,447.751678 416.630676,445.345825 
	C413.893463,444.677460 411.135742,444.063934 408.446655,443.233521 
	C401.611359,441.122711 398.421265,435.249939 400.807098,428.483276 
	C402.341339,424.131866 404.255859,419.835968 406.595520,415.866180 
	C409.818237,410.398071 410.690155,404.563263 409.898804,398.555664 
	C408.733368,389.708252 407.110229,380.916870 405.523499,372.130219 
	C402.807861,357.092499 392.003021,349.743591 379.126648,344.081573 
	C368.447266,339.385559 357.705414,341.097107 346.845551,342.541443 
	C335.213531,344.088440 323.590393,346.353546 311.916168,346.695801 
	C304.509460,346.912903 296.790741,344.894318 289.627838,342.587158 
	C282.852203,340.404785 282.743958,337.767181 287.730225,332.781189 
	C293.377686,327.134033 293.718872,322.819550 289.455933,315.383942 
	C299.859802,315.344696 309.883606,315.699158 319.908966,316.000580 
	C322.947144,316.091980 325.989746,316.036926 329.099823,316.443573 
	C330.800812,317.245728 332.485748,318.141113 334.053772,317.969391 
	C338.765869,317.453308 343.466919,316.677856 348.096039,315.657684 
	C349.520813,315.343658 350.700439,313.917511 352.417480,313.001007 
	C356.196655,312.676514 359.550659,312.351624 363.196167,312.248047 
	C366.673645,312.270081 370.457794,313.521301 372.287384,309.002441 
	C374.159576,308.670898 375.608276,308.334167 377.064423,308.033386 
	C391.281372,305.096649 405.539795,302.344971 419.701141,299.161224 
	C427.273071,297.458923 434.678192,295.014771 442.555786,292.954865 
	C449.641602,290.379395 456.359650,287.824005 462.976074,285.028198 
	C463.681427,284.730103 463.792999,283.026703 464.383667,281.991089 
	C464.587280,282.006927 464.995758,282.001648 465.399597,282.037109 
	C471.853729,281.638123 476.323456,278.383118 477.203064,274.037842 
	C483.075989,274.214294 487.366089,272.416962 489.692444,267.040436 
	C490.044739,266.226257 491.055908,265.610870 491.884399,265.102509 
	C499.184387,260.623383 506.290771,255.752823 513.907227,251.891251 
	C519.224792,249.195267 525.252014,247.899109 530.962280,245.977692 
z"/>
<path fill="#E6915C" opacity="1.000000" stroke="none" 
	d="
M329.030304,316.048950 
	C325.989746,316.036926 322.947144,316.091980 319.908966,316.000580 
	C309.883606,315.699158 299.859802,315.344696 289.404236,315.017303 
	C281.560883,309.032776 281.872925,308.392273 287.508453,300.804169 
	C297.713715,287.063141 311.744843,281.515137 328.114655,279.940582 
	C346.711945,278.151794 365.269348,275.951050 383.860474,274.093781 
	C395.713196,272.909668 407.666504,272.527588 419.446198,270.871643 
	C432.829071,268.990326 445.675049,264.730011 457.261383,257.680756 
	C461.501617,255.100937 465.339630,251.188751 468.155884,247.061905 
	C477.692017,233.088043 489.919159,223.697617 507.028046,221.114502 
	C518.364014,219.403000 528.764648,227.135406 530.049500,238.751175 
	C530.285400,240.883789 530.664612,243.000534 530.969971,245.551147 
	C525.252014,247.899109 519.224792,249.195267 513.907227,251.891251 
	C506.290771,255.752823 499.184387,260.623383 491.884399,265.102509 
	C491.055908,265.610870 490.044739,266.226257 489.692444,267.040436 
	C487.366089,272.416962 483.075989,274.214294 476.847046,274.055054 
	C471.630341,275.644318 466.769745,276.656860 464.995758,282.001648 
	C464.995758,282.001648 464.587280,282.006927 463.966736,281.966187 
	C456.689514,284.737030 450.011627,287.500702 443.409454,290.434814 
	C442.755646,290.725403 442.564514,292.057037 442.158630,292.905457 
	C434.678192,295.014771 427.273071,297.458923 419.701141,299.161224 
	C405.539795,302.344971 391.281372,305.096649 377.064423,308.033386 
	C375.608276,308.334167 374.159576,308.670898 371.953552,308.837402 
	C367.692017,307.955200 364.039612,306.867493 362.904663,312.026733 
	C359.550659,312.351624 356.196655,312.676514 352.055695,312.813416 
	C343.435760,311.037262 336.271759,313.794586 329.030304,316.048950 
z"/>
<path fill="#FED2A4" opacity="1.000000" stroke="none" 
	d="
M470.023010,389.523071 
	C463.929260,390.981812 457.883026,391.974670 451.411255,393.008911 
	C450.868713,392.933960 450.652039,392.820160 450.648956,392.700897 
	C450.374573,382.088593 450.116547,371.475891 450.371246,360.430206 
	C456.941498,359.261322 462.997955,358.525421 469.054413,357.789551 
	C469.387390,361.813629 469.906342,365.832916 470.010681,369.862915 
	C470.176270,376.257263 470.064850,382.658783 470.023010,389.523071 
z"/>
<path fill="#DB8A63" opacity="1.000000" stroke="none" 
	d="
M469.034058,357.440063 
	C462.997955,358.525421 456.941498,359.261322 450.457947,360.025391 
	C450.881104,354.698120 454.746399,350.772827 460.333435,350.509125 
	C464.714569,350.302277 467.727264,352.772827 469.034058,357.440063 
z"/>
<path fill="#FBCBAD" opacity="1.000000" stroke="none" 
	d="
M506.210938,353.561951 
	C505.584473,354.934204 504.895264,355.882263 504.206055,356.830322 
	C503.519257,355.862000 502.157135,354.806732 502.268585,353.941162 
	C502.648560,350.990082 503.547485,348.105804 504.617584,345.105347 
	C505.373901,347.722351 505.761017,350.430023 506.210938,353.561951 
z"/>
<path fill="#EDC38D" opacity="1.000000" stroke="none" 
	d="
M341.974701,142.994995 
	C359.247894,149.067429 376.194977,154.913910 393.071930,160.956223 
	C396.571808,162.209290 399.811462,164.189194 403.171051,165.834106 
	C402.939301,166.578400 402.707581,167.322693 402.475830,168.066986 
	C399.306396,167.854401 395.899323,168.325592 393.005554,167.319824 
	C371.999817,160.019012 351.068359,152.500092 330.188599,144.845139 
	C326.261047,143.405212 322.670166,141.046921 319.207855,138.422043 
	C327.785736,135.148041 334.359070,140.655930 341.974701,142.994995 
z"/>
<path fill="#EDC38D" opacity="1.000000" stroke="none" 
	d="
M420.673950,159.771667 
	C418.117371,160.809280 415.814026,161.582504 413.510620,162.355743 
	C414.373108,160.045700 414.687897,157.271744 416.187469,155.501389 
	C425.507904,144.498077 435.019989,133.653214 444.669342,122.936615 
	C446.169128,121.270966 448.698669,120.532486 450.752014,119.365265 
	C451.280243,119.958000 451.808472,120.550735 452.336670,121.143478 
	C450.972351,123.186035 449.783173,125.375351 448.214783,127.246910 
	C439.168488,138.041946 430.032623,148.761887 420.673950,159.771667 
z"/>
<path fill="#EDC48E" opacity="1.000000" stroke="none" 
	d="
M408.728577,168.539276 
	C409.046509,172.265121 409.165924,175.777344 408.971161,179.272064 
	C408.816528,182.047119 408.510529,184.862473 407.802551,187.535675 
	C407.487183,188.726425 406.172272,190.008377 405.005493,190.460480 
	C404.460480,190.671646 402.284302,188.864853 402.387482,188.218582 
	C403.431366,181.680420 404.767212,175.187378 406.158905,168.711288 
	C406.218719,168.432922 407.618744,168.442596 408.728577,168.539276 
z"/>
<path fill="#FCF8E5" opacity="1.000000" stroke="none" 
	d="
M417.349945,133.960220 
	C419.722534,130.143784 422.083008,126.667297 424.443451,123.190811 
	C424.868408,123.269897 425.293396,123.348984 425.718353,123.428070 
	C425.718353,124.696060 426.174805,126.222321 425.631317,127.182785 
	C424.103271,129.883209 422.258972,132.429108 420.287262,134.828796 
	C419.977509,135.205856 418.353912,134.503448 417.349945,133.960220 
z"/>
<path fill="#FCF9E7" opacity="1.000000" stroke="none" 
	d="
M410.224030,142.316437 
	C413.397980,140.340561 414.496063,142.091690 413.490509,144.337616 
	C412.577881,146.375900 410.242035,147.776947 408.533661,149.458923 
	C407.916077,148.975906 407.298492,148.492874 406.680908,148.009857 
	C407.774109,146.192612 408.867310,144.375381 410.224030,142.316437 
z"/>
<path fill="#FCCDAF" opacity="1.000000" stroke="none" 
	d="
M442.555786,292.954895 
	C442.564514,292.057037 442.755646,290.725403 443.409454,290.434814 
	C450.011627,287.500702 456.689514,284.737030 463.763092,281.950378 
	C463.792999,283.026703 463.681427,284.730103 462.976074,285.028198 
	C456.359650,287.824005 449.641602,290.379395 442.555786,292.954895 
z"/>
<path fill="#FCCDAF" opacity="1.000000" stroke="none" 
	d="
M329.099823,316.443573 
	C336.271759,313.794586 343.435760,311.037262 351.630524,312.812988 
	C350.700439,313.917511 349.520813,315.343658 348.096039,315.657684 
	C343.466919,316.677856 338.765869,317.453308 334.053772,317.969391 
	C332.485748,318.141113 330.800812,317.245728 329.099823,316.443573 
z"/>
<path fill="#FCCBAC" opacity="1.000000" stroke="none" 
	d="
M465.399597,282.037109 
	C466.769745,276.656860 471.630341,275.644318 476.459351,274.070557 
	C476.323456,278.383118 471.853729,281.638123 465.399597,282.037109 
z"/>
<path fill="#FBCAAB" opacity="1.000000" stroke="none" 
	d="
M363.196167,312.248047 
	C364.039612,306.867493 367.692017,307.955200 371.533569,308.848938 
	C370.457794,313.521301 366.673645,312.270081 363.196167,312.248047 
z"/>
</svg>