<svg width="11" height="16" viewBox="0 0 11 16" fill="none" xmlns="http://www.w3.org/2000/svg">
<g clip-path="url(#clip0_116_337)">
<path d="M0 1.5C0 0.671875 0.615885 0 1.375 0V1.5V13.7938L5.10182 10.8906C5.33958 10.7031 5.66328 10.7031 5.90104 10.8906L9.625 13.7938V1.5H1.375V0H9.625C10.3841 0 11 0.671875 11 1.5V15.25C11 15.5313 10.8568 15.7875 10.6276 15.9156C10.3984 16.0438 10.1234 16.0219 9.91432 15.8594L5.5 12.4219L1.08568 15.8594C0.876563 16.0219 0.601562 16.0438 0.372396 15.9156C0.143229 15.7875 0 15.5313 0 15.25V1.5Z" fill="white"/>
</g>
<defs>
<clipPath id="clip0_116_337">
<rect width="11" height="16" fill="white"/>
</clipPath>
</defs>
</svg>
