<svg width="15" height="20" viewBox="0 0 15 20" fill="none" xmlns="http://www.w3.org/2000/svg">
<g clip-path="url(#clip0_12_118)">
<path d="M10.9375 2.5H12.5C13.8789 2.5 15 3.62109 15 5V17.5C15 18.8789 13.8789 20 12.5 20H2.5C1.12109 20 0 18.8789 0 17.5V5C0 3.62109 1.12109 2.5 2.5 2.5H4.0625H4.4375C4.72656 1.07422 5.98828 0 7.5 0C9.01172 0 10.2734 1.07422 10.5625 2.5H10.9375ZM2.5 4.375C2.15625 4.375 1.875 4.65625 1.875 5V17.5C1.875 17.8438 2.15625 18.125 2.5 18.125H12.5C12.8438 18.125 13.125 17.8438 13.125 17.5V5C13.125 4.65625 12.8438 4.375 12.5 4.375H11.875V5.3125C11.875 5.83203 11.457 6.25 10.9375 6.25H7.5H4.0625C3.54297 6.25 3.125 5.83203 3.125 5.3125V4.375H2.5ZM7.5 4.0625C7.74864 4.0625 7.9871 3.96373 8.16291 3.78791C8.33873 3.6121 8.4375 3.37364 8.4375 3.125C8.4375 2.87636 8.33873 2.6379 8.16291 2.46209C7.9871 2.28627 7.74864 2.1875 7.5 2.1875C7.25136 2.1875 7.0129 2.28627 6.83709 2.46209C6.66127 2.6379 6.5625 2.87636 6.5625 3.125C6.5625 3.37364 6.66127 3.6121 6.83709 3.78791C7.0129 3.96373 7.25136 4.0625 7.5 4.0625Z" fill="#666666"/>
</g>
<defs>
<clipPath id="clip0_12_118">
<rect width="15" height="20" fill="white"/>
</clipPath>
</defs>
</svg>
