<svg width="20" height="20" viewBox="0 0 20 20" fill="none" xmlns="http://www.w3.org/2000/svg">
<path d="M11.5385 1.47692C11.5385 0.66 10.851 0 10 0C9.14904 0 8.46154 0.66 8.46154 1.47692V8.12308H1.53846C0.6875 8.12308 0 8.78308 0 9.6C0 10.4169 0.6875 11.0769 1.53846 11.0769H8.46154V17.7231C8.46154 18.54 9.14904 19.2 10 19.2C10.851 19.2 11.5385 18.54 11.5385 17.7231V11.0769H18.4615C19.3125 11.0769 20 10.4169 20 9.6C20 8.78308 19.3125 8.12308 18.4615 8.12308H11.5385V1.47692Z" fill="#DDDF72"/>
</svg>
