<svg width="32" height="36" viewBox="0 0 32 36" fill="none" xmlns="http://www.w3.org/2000/svg">
<path d="M18.2857 5.625C18.2857 4.38047 17.2642 3.375 16 3.375C14.7357 3.375 13.7143 4.38047 13.7143 5.625V15.75H3.42854C2.16425 15.75 1.14282 16.7555 1.14282 18C1.14282 19.2445 2.16425 20.25 3.42854 20.25H13.7143V30.375C13.7143 31.6195 14.7357 32.625 16 32.625C17.2642 32.625 18.2857 31.6195 18.2857 30.375V20.25H28.5714C29.8357 20.25 30.8571 19.2445 30.8571 18C30.8571 16.7555 29.8357 15.75 28.5714 15.75H18.2857V5.625Z" fill="#666666"/>
</svg>
